<svg xmlns="http://www.w3.org/2000/svg" xmlns:xlink="http://www.w3.org/1999/xlink" width="2000" zoomAndPan="magnify" viewBox="0 0 1500 225" height="300" preserveAspectRatio="xMidYMid meet" version="1.2"><defs/><g id="e23b353987"><g style="fill:#000000;fill-opacity:1;"><g transform="translate(628.463932, 170.398491)"><path style="stroke:none" d="M 28.515625 -78.171875 C 25.804688 -78.171875 23.625 -79.019531 21.96875 -80.71875 C 20.3125 -82.414062 19.484375 -84.5 19.484375 -86.96875 C 19.484375 -90.019531 20.753906 -92.835938 23.296875 -95.421875 C 25.847656 -98.015625 28.734375 -99.3125 31.953125 -99.3125 C 34.671875 -99.3125 36.835938 -98.460938 38.453125 -96.765625 C 40.066406 -95.066406 40.875 -93.03125 40.875 -90.65625 C 40.875 -87.34375 39.617188 -84.429688 37.109375 -81.921875 C 34.609375 -79.421875 31.742188 -78.171875 28.515625 -78.171875 Z M 35.015625 -62.515625 L 25.078125 0 L 7.25 0 L 17.1875 -62.515625 Z M 35.015625 -62.515625 "/></g></g><g style="fill:#000000;fill-opacity:1;"><g transform="translate(660.676977, 170.398491)"><path style="stroke:none" d="M 52.59375 -46.46875 C 50.550781 -48 48.210938 -48.765625 45.578125 -48.765625 C 40.742188 -48.765625 37.007812 -47.128906 34.375 -43.859375 C 31.75 -40.597656 29.882812 -35.613281 28.78125 -28.90625 L 24.1875 0 L 6.359375 0 L 16.296875 -62.515625 L 34.125 -62.515625 L 33.109375 -56.03125 L 33.359375 -56.03125 C 35.566406 -58.738281 38.09375 -60.835938 40.9375 -62.328125 C 43.78125 -63.816406 46.859375 -64.5625 50.171875 -64.5625 C 51.441406 -64.5625 52.691406 -64.410156 53.921875 -64.109375 C 55.148438 -63.816406 56.273438 -63.457031 57.296875 -63.03125 Z M 52.59375 -46.46875 "/></g></g><g style="fill:#000000;fill-opacity:1;"><g transform="translate(706.641025, 170.398491)"><path style="stroke:none" d="M 56.28125 -56.53125 L 57.296875 -62.515625 L 75.125 -62.515625 L 65.953125 -4.71875 C 63.742188 8.53125 59.625 18.1875 53.59375 24.25 C 47.570312 30.320312 39.597656 33.359375 29.671875 33.359375 C 22.023438 33.359375 15.503906 31.253906 10.109375 27.046875 C 4.722656 22.847656 2.03125 17.144531 2.03125 9.9375 C 2.03125 9 2.078125 8.148438 2.171875 7.390625 L 21.015625 7.390625 L 21.015625 7.640625 C 21.015625 10.867188 21.945312 13.457031 23.8125 15.40625 C 25.675781 17.351562 28.265625 18.328125 31.578125 18.328125 C 35.648438 18.328125 38.875 17.160156 41.25 14.828125 C 43.625 12.492188 45.234375 9.5 46.078125 5.84375 C 46.929688 2.195312 47.703125 -1.828125 48.390625 -6.234375 L 48.125 -6.234375 C 45.832031 -3.691406 43.007812 -1.675781 39.65625 -0.1875 C 36.3125 1.289062 32.984375 2.03125 29.671875 2.03125 C 22.535156 2.03125 16.84375 -0.363281 12.59375 -5.15625 C 8.351562 -9.945312 6.234375 -16.289062 6.234375 -24.1875 C 6.234375 -30.8125 7.757812 -37.285156 10.8125 -43.609375 C 13.875 -49.929688 18.078125 -55.003906 23.421875 -58.828125 C 28.773438 -62.648438 34.675781 -64.5625 41.125 -64.5625 C 44.269531 -64.5625 47.175781 -63.835938 49.84375 -62.390625 C 52.519531 -60.941406 54.582031 -58.988281 56.03125 -56.53125 Z M 42.40625 -48.765625 C 37.726562 -48.765625 33.609375 -46.578125 30.046875 -42.203125 C 26.484375 -37.835938 24.703125 -33.109375 24.703125 -28.015625 C 24.703125 -24.023438 25.828125 -20.648438 28.078125 -17.890625 C 30.328125 -15.128906 33.273438 -13.75 36.921875 -13.75 C 41.585938 -13.75 45.722656 -15.867188 49.328125 -20.109375 C 52.941406 -24.359375 54.75 -29.113281 54.75 -34.375 C 54.75 -38.445312 53.644531 -41.863281 51.4375 -44.625 C 49.226562 -47.382812 46.21875 -48.765625 42.40625 -48.765625 Z M 42.40625 -48.765625 "/></g></g><g style="fill:#000000;fill-opacity:1;"><g transform="translate(778.197266, 170.398491)"><path style="stroke:none" d="M 57.8125 -62.515625 L 75.375 -62.515625 L 65.453125 0 L 47.875 0 L 48.765625 -5.734375 L 48.515625 -5.734375 C 46.222656 -3.265625 43.421875 -1.351562 40.109375 0 C 36.796875 1.351562 33.523438 2.03125 30.296875 2.03125 C 23.171875 2.03125 17.398438 -0.445312 12.984375 -5.40625 C 8.566406 -10.375 6.359375 -16.929688 6.359375 -25.078125 C 6.359375 -31.617188 7.882812 -37.941406 10.9375 -44.046875 C 14 -50.160156 18.179688 -55.109375 23.484375 -58.890625 C 28.796875 -62.671875 34.507812 -64.5625 40.625 -64.5625 C 43.84375 -64.5625 46.914062 -63.878906 49.84375 -62.515625 C 52.769531 -61.160156 55.082031 -59.207031 56.78125 -56.65625 Z M 42.40625 -48.765625 C 37.820312 -48.765625 33.722656 -46.617188 30.109375 -42.328125 C 26.503906 -38.046875 24.703125 -33.316406 24.703125 -28.140625 C 24.703125 -24.066406 25.847656 -20.648438 28.140625 -17.890625 C 30.429688 -15.128906 33.359375 -13.75 36.921875 -13.75 C 41.503906 -13.75 45.640625 -15.867188 49.328125 -20.109375 C 53.023438 -24.359375 54.875 -29.070312 54.875 -34.25 C 54.875 -38.320312 53.75 -41.757812 51.5 -44.5625 C 49.25 -47.363281 46.21875 -48.765625 42.40625 -48.765625 Z M 42.40625 -48.765625 "/></g></g><g style="fill:#000000;fill-opacity:1;"><g transform="translate(850.135477, 170.398491)"><path style="stroke:none" d="M 41.25 -107.96875 L 24.1875 0 L 6.359375 0 L 23.421875 -107.96875 Z M 41.25 -107.96875 "/></g></g><g style="fill:#000000;fill-opacity:1;"><g transform="translate(880.693306, 170.398491)"><path style="stroke:none" d="M 41.25 -107.96875 L 24.1875 0 L 6.359375 0 L 23.421875 -107.96875 Z M 41.25 -107.96875 "/></g></g><g style="fill:#000000;fill-opacity:1;"><g transform="translate(911.123832, 170.398491)"><path style="stroke:none" d="M 27.890625 -62.515625 L 37.1875 -27 L 58.828125 -62.515625 L 78.6875 -62.515625 L 18.078125 33.359375 L -1.53125 33.359375 L 25.84375 -9.546875 L 7.640625 -62.515625 Z M 27.890625 -62.515625 "/></g></g><g style="fill:#000000;fill-opacity:1;"><g transform="translate(519.210178, 169.768018)"><path style="stroke:none" d="M 9.875 -3.4375 C 9.070312 -7.257812 9.25 -10.910156 10.40625 -14.390625 C 11.5625 -17.878906 12.046875 -21.484375 11.859375 -25.203125 C 11.679688 -28.460938 12.050781 -32.722656 12.96875 -37.984375 C 13.894531 -43.242188 14.921875 -48.546875 16.046875 -53.890625 C 17.171875 -59.242188 18.101562 -63.503906 18.84375 -66.671875 C 19.914062 -71.648438 20.820312 -77.023438 21.5625 -82.796875 C 22.300781 -88.566406 23.515625 -93.800781 25.203125 -98.5 C 25.597656 -99.5625 25.882812 -100.503906 26.0625 -101.328125 C 26.25 -102.160156 26.234375 -103.097656 26.015625 -104.140625 C 25.785156 -105.765625 25.960938 -107.410156 26.546875 -109.078125 C 27.140625 -110.753906 27.316406 -112.328125 27.078125 -113.796875 C 27.015625 -114.992188 26.875 -116.253906 26.65625 -117.578125 C 26.445312 -118.910156 26.609375 -120.109375 27.140625 -121.171875 C 27.816406 -122.398438 28.832031 -122.9375 30.1875 -122.78125 C 31.539062 -122.632812 32.253906 -123.304688 32.328125 -124.796875 C 32.566406 -125.859375 32.289062 -126.738281 31.5 -127.4375 C 30.71875 -128.132812 30.082031 -128.921875 29.59375 -129.796875 C 29.257812 -130.535156 29.703125 -131.265625 30.921875 -131.984375 C 32.148438 -132.710938 33.078125 -132.867188 33.703125 -132.453125 C 34.316406 -132.035156 34.6875 -131.976562 34.8125 -132.28125 C 34.945312 -132.59375 35.257812 -132.320312 35.75 -131.46875 C 36.25 -130.59375 36.382812 -130.1875 36.15625 -130.25 C 35.925781 -130.3125 35.828125 -130.046875 35.859375 -129.453125 C 36.953125 -128.617188 37.613281 -127.460938 37.84375 -125.984375 C 38.070312 -124.503906 37.992188 -123.085938 37.609375 -121.734375 C 37.523438 -120.691406 37.710938 -119.25 38.171875 -117.40625 C 38.640625 -115.570312 38.59375 -114.34375 38.03125 -113.71875 C 37.0625 -112.3125 36.773438 -111.320312 37.171875 -110.75 C 37.578125 -110.175781 37.675781 -109.070312 37.46875 -107.4375 C 37.3125 -104.738281 36.941406 -101.140625 36.359375 -96.640625 C 35.773438 -92.140625 35.035156 -88.601562 34.140625 -86.03125 C 33.609375 -84.664062 33.21875 -83.488281 32.96875 -82.5 C 32.726562 -81.519531 32.644531 -80.363281 32.71875 -79.03125 C 32.957031 -77.09375 32.753906 -74.429688 32.109375 -71.046875 C 31.472656 -67.660156 30.722656 -64.234375 29.859375 -60.765625 C 29.003906 -57.304688 28.253906 -54.585938 27.609375 -52.609375 C 26.597656 -49.285156 26.035156 -45.867188 25.921875 -42.359375 C 25.816406 -38.859375 25.253906 -35.441406 24.234375 -32.109375 C 23.035156 -26.523438 22.273438 -21.117188 21.953125 -15.890625 C 21.984375 -15.296875 21.96875 -14.140625 21.90625 -12.421875 C 21.851562 -10.710938 21.898438 -9.117188 22.046875 -7.640625 C 22.203125 -6.160156 22.578125 -5.4375 23.171875 -5.46875 C 23.617188 -5.488281 24.050781 -5.804688 24.46875 -6.421875 C 24.894531 -6.878906 25.8125 -7.78125 27.21875 -9.125 C 28.632812 -10.46875 30.191406 -11.96875 31.890625 -13.625 C 33.597656 -15.28125 35.050781 -16.769531 36.25 -18.09375 C 37.445312 -19.425781 38.039062 -20.238281 38.03125 -20.53125 C 37.832031 -21.414062 38.125 -22.140625 38.90625 -22.703125 C 39.695312 -23.273438 41.203125 -25.109375 43.421875 -28.203125 C 48.148438 -34.703125 52.347656 -40.503906 56.015625 -45.609375 C 59.691406 -50.722656 63.046875 -55.664062 66.078125 -60.4375 C 69.109375 -65.21875 72.117188 -70.296875 75.109375 -75.671875 C 78.796875 -79.140625 81.644531 -82.972656 83.65625 -87.171875 C 85.675781 -91.367188 88.234375 -95.191406 91.328125 -98.640625 C 93.304688 -100.523438 95.007812 -102.769531 96.4375 -105.375 C 97.875 -107.988281 99.738281 -110.101562 102.03125 -111.71875 C 102.882812 -112.488281 103.925781 -113.242188 105.15625 -113.984375 C 106.382812 -114.722656 107.113281 -115.769531 107.34375 -117.125 C 107.15625 -117.707031 107.585938 -118.625 108.640625 -119.875 C 109.703125 -121.125 110.523438 -121.910156 111.109375 -122.234375 C 111.390625 -122.410156 111.539062 -122.238281 111.5625 -121.71875 C 111.59375 -121.195312 111.894531 -121.097656 112.46875 -121.421875 C 113.1875 -121.898438 113.472656 -122.84375 113.328125 -124.25 C 113.179688 -125.65625 113.625 -126.460938 114.65625 -126.671875 C 115.6875 -126.867188 116.222656 -127.265625 116.265625 -127.859375 C 116.316406 -128.460938 116.359375 -129.101562 116.390625 -129.78125 C 116.429688 -130.457031 116.890625 -130.960938 117.765625 -131.296875 C 118.796875 -131.648438 119.625 -132.253906 120.25 -133.109375 C 120.875 -133.960938 121.613281 -134.785156 122.46875 -135.578125 C 124.28125 -137.597656 126.546875 -139.648438 129.265625 -141.734375 C 131.992188 -143.816406 133.828125 -145.851562 134.765625 -147.84375 C 135.304688 -148.75 135.679688 -149.316406 135.890625 -149.546875 C 136.109375 -149.785156 136.804688 -150.015625 137.984375 -150.234375 C 139.421875 -151.359375 140.335938 -152.375 140.734375 -153.28125 C 141.140625 -154.195312 142.3125 -154.554688 144.25 -154.359375 C 145.738281 -154.296875 146.851562 -154.359375 147.59375 -154.546875 C 148.332031 -154.734375 148.828125 -153.789062 149.078125 -151.71875 C 147.890625 -151.65625 147.382812 -151.289062 147.5625 -150.625 C 147.75 -149.957031 147.421875 -149.238281 146.578125 -148.46875 C 144.160156 -146.25 142.203125 -143.796875 140.703125 -141.109375 C 139.210938 -138.421875 136.9375 -136.40625 133.875 -135.0625 C 133.582031 -135.039062 132.925781 -134.109375 131.90625 -132.265625 C 130.882812 -130.421875 129.75 -128.570312 128.5 -126.71875 C 127.257812 -124.875 126.273438 -123.785156 125.546875 -123.453125 C 124.546875 -122.660156 123.753906 -122.132812 123.171875 -121.875 C 122.597656 -121.625 122.5 -120.757812 122.875 -119.28125 C 121.351562 -116.96875 118.992188 -114.3125 115.796875 -111.3125 C 112.609375 -108.3125 110.335938 -105.507812 108.984375 -102.90625 C 108.703125 -102.445312 108.460938 -101.953125 108.265625 -101.421875 C 108.078125 -100.898438 107.769531 -100.476562 107.34375 -100.15625 C 106.332031 -99.5 105.785156 -99.207031 105.703125 -99.28125 C 105.617188 -99.351562 105.644531 -99.578125 105.78125 -99.953125 C 105.914062 -100.335938 105.6875 -100.515625 105.09375 -100.484375 C 104.550781 -99.410156 104.554688 -98.550781 105.109375 -97.90625 C 105.671875 -97.257812 104.921875 -96.660156 102.859375 -96.109375 C 102.421875 -95.941406 102.210938 -95.632812 102.234375 -95.1875 C 102.253906 -94.738281 101.988281 -94.164062 101.4375 -93.46875 C 100.882812 -92.769531 99.523438 -91.765625 97.359375 -90.453125 C 96.765625 -90.265625 96.644531 -89.625 97 -88.53125 C 97.363281 -87.4375 96.957031 -86.632812 95.78125 -86.125 C 93.320312 -84.8125 91.695312 -83.203125 90.90625 -81.296875 C 90.113281 -79.390625 89.394531 -77.453125 88.75 -75.484375 C 88.101562 -73.515625 86.71875 -71.503906 84.59375 -69.453125 C 84 -69.421875 83.546875 -69.472656 83.234375 -69.609375 C 82.929688 -69.742188 82.644531 -69.503906 82.375 -68.890625 C 83.582031 -68.796875 83.835938 -68.285156 83.140625 -67.359375 C 82.441406 -66.441406 81.484375 -65.503906 80.265625 -64.546875 C 79.054688 -63.585938 78.164062 -62.941406 77.59375 -62.609375 C 76.445312 -61.648438 76.101562 -61.035156 76.5625 -60.765625 C 77.019531 -60.492188 76.984375 -59.75 76.453125 -58.53125 C 76.179688 -58.21875 75.5625 -57.960938 74.59375 -57.765625 C 73.632812 -57.566406 73.109375 -57.015625 73.015625 -56.109375 L 74.359375 -56.171875 C 74.265625 -54.835938 73.722656 -53.660156 72.734375 -52.640625 C 71.742188 -51.617188 70.910156 -50.640625 70.234375 -49.703125 C 70.046875 -50.453125 69.875 -50.820312 69.71875 -50.8125 C 69.570312 -50.800781 69.125 -50.847656 68.375 -50.953125 C 67.851562 -49.585938 68.1875 -48.9375 69.375 -49 C 69.832031 -48.875 69.960938 -48.539062 69.765625 -48 C 69.566406 -47.46875 69.476562 -46.984375 69.5 -46.546875 C 69.070312 -46.222656 68.050781 -45.085938 66.4375 -43.140625 C 64.820312 -41.203125 63.289062 -39.1875 61.84375 -37.09375 C 60.394531 -35.007812 59.535156 -33.585938 59.265625 -32.828125 C 58.878906 -31.765625 58.347656 -31.25 57.671875 -31.28125 C 57.003906 -31.320312 56.394531 -30.890625 55.84375 -29.984375 C 55.425781 -29.359375 55.125 -28.664062 54.9375 -27.90625 C 54.757812 -27.15625 54.3125 -26.535156 53.59375 -26.046875 C 52.59375 -25.253906 51.820312 -24.242188 51.28125 -23.015625 C 50.75 -21.796875 50.144531 -20.644531 49.46875 -19.5625 C 48.945312 -18.207031 48.144531 -17.164062 47.0625 -16.4375 C 45.988281 -15.707031 45.109375 -14.726562 44.421875 -13.5 C 43.316406 -11.800781 41.617188 -9.40625 39.328125 -6.3125 C 37.035156 -3.21875 34.660156 -0.191406 32.203125 2.765625 C 29.753906 5.734375 27.671875 7.859375 25.953125 9.140625 C 24.660156 10.097656 23.335938 10.535156 21.984375 10.453125 C 20.640625 10.378906 19.160156 10.535156 17.546875 10.921875 C 16.273438 9.191406 14.71875 7.851562 12.875 6.90625 C 11.945312 6.21875 11.269531 4.65625 10.84375 2.21875 C 10.414062 -0.207031 10.09375 -2.09375 9.875 -3.4375 Z M 9.875 -3.4375 "/></g></g><g style="fill:#000000;fill-opacity:1;"><g transform="translate(507.76357, 186.275023)"><path style="stroke:none" d="M 11.78125 -4.09375 C 10.832031 -8.664062 11.046875 -13.03125 12.421875 -17.1875 C 13.804688 -21.34375 14.382812 -25.632812 14.15625 -30.0625 C 13.945312 -33.96875 14.382812 -39.054688 15.46875 -45.328125 C 16.5625 -51.609375 17.785156 -57.941406 19.140625 -64.328125 C 20.503906 -70.710938 21.617188 -75.789062 22.484375 -79.5625 C 23.765625 -85.488281 24.847656 -91.894531 25.734375 -98.78125 C 26.617188 -105.675781 28.066406 -111.9375 30.078125 -117.5625 C 30.554688 -118.832031 30.898438 -119.957031 31.109375 -120.9375 C 31.328125 -121.925781 31.316406 -123.035156 31.078125 -124.265625 C 30.796875 -126.210938 31 -128.179688 31.6875 -130.171875 C 32.375 -132.160156 32.582031 -134.035156 32.3125 -135.796875 C 32.238281 -137.210938 32.070312 -138.710938 31.8125 -140.296875 C 31.5625 -141.890625 31.753906 -143.320312 32.390625 -144.59375 C 33.203125 -146.070312 34.410156 -146.71875 36.015625 -146.53125 C 37.628906 -146.351562 38.476562 -147.15625 38.5625 -148.9375 C 38.851562 -150.1875 38.53125 -151.234375 37.59375 -152.078125 C 36.664062 -152.921875 35.910156 -153.859375 35.328125 -154.890625 C 34.910156 -155.753906 35.4375 -156.625 36.90625 -157.5 C 38.375 -158.382812 39.476562 -158.578125 40.21875 -158.078125 C 40.957031 -157.578125 41.40625 -157.507812 41.5625 -157.875 C 41.726562 -158.238281 42.097656 -157.90625 42.671875 -156.875 C 43.265625 -155.832031 43.425781 -155.347656 43.15625 -155.421875 C 42.882812 -155.503906 42.765625 -155.191406 42.796875 -154.484375 C 44.097656 -153.492188 44.882812 -152.113281 45.15625 -150.34375 C 45.425781 -148.582031 45.335938 -146.882812 44.890625 -145.25 C 44.773438 -144 44.992188 -142.28125 45.546875 -140.09375 C 46.109375 -137.90625 46.054688 -136.4375 45.390625 -135.6875 C 44.242188 -134.03125 43.90625 -132.859375 44.375 -132.171875 C 44.851562 -131.484375 44.96875 -130.160156 44.71875 -128.203125 C 44.53125 -124.984375 44.085938 -120.691406 43.390625 -115.328125 C 42.703125 -109.960938 41.816406 -105.738281 40.734375 -102.65625 C 40.109375 -101.019531 39.648438 -99.617188 39.359375 -98.453125 C 39.066406 -97.285156 38.960938 -95.90625 39.046875 -94.3125 C 39.335938 -92 39.097656 -88.828125 38.328125 -84.796875 C 37.554688 -80.765625 36.660156 -76.675781 35.640625 -72.53125 C 34.628906 -68.382812 33.734375 -65.140625 32.953125 -62.796875 C 31.742188 -58.804688 31.070312 -54.71875 30.9375 -50.53125 C 30.800781 -46.351562 30.128906 -42.285156 28.921875 -38.328125 C 27.484375 -31.671875 26.578125 -25.21875 26.203125 -18.96875 C 26.242188 -18.257812 26.226562 -16.878906 26.15625 -14.828125 C 26.082031 -12.785156 26.132812 -10.878906 26.3125 -9.109375 C 26.5 -7.347656 26.945312 -6.488281 27.65625 -6.53125 C 28.175781 -6.5625 28.679688 -6.9375 29.171875 -7.65625 C 29.691406 -8.21875 30.796875 -9.300781 32.484375 -10.90625 C 34.179688 -12.507812 36.039062 -14.296875 38.0625 -16.265625 C 40.09375 -18.234375 41.820312 -20.007812 43.25 -21.59375 C 44.6875 -23.175781 45.394531 -24.144531 45.375 -24.5 C 45.132812 -25.570312 45.484375 -26.441406 46.421875 -27.109375 C 47.367188 -27.773438 49.164062 -29.957031 51.8125 -33.65625 C 57.445312 -41.40625 62.460938 -48.332031 66.859375 -54.4375 C 71.253906 -60.539062 75.253906 -66.4375 78.859375 -72.125 C 82.460938 -77.820312 86.054688 -83.878906 89.640625 -90.296875 C 94.035156 -94.441406 97.429688 -99.019531 99.828125 -104.03125 C 102.234375 -109.050781 105.285156 -113.609375 108.984375 -117.703125 C 111.359375 -119.960938 113.394531 -122.648438 115.09375 -125.765625 C 116.800781 -128.878906 119.023438 -131.394531 121.765625 -133.3125 C 122.785156 -134.25 124.023438 -135.15625 125.484375 -136.03125 C 126.953125 -136.90625 127.820312 -138.148438 128.09375 -139.765625 C 127.875 -140.460938 128.394531 -141.554688 129.65625 -143.046875 C 130.914062 -144.546875 131.890625 -145.488281 132.578125 -145.875 C 132.921875 -146.070312 133.109375 -145.859375 133.140625 -145.234375 C 133.171875 -144.617188 133.53125 -144.507812 134.21875 -144.90625 C 135.070312 -145.476562 135.410156 -146.601562 135.234375 -148.28125 C 135.054688 -149.957031 135.585938 -150.921875 136.828125 -151.171875 C 138.054688 -151.410156 138.695312 -151.882812 138.75 -152.59375 C 138.800781 -153.3125 138.847656 -154.070312 138.890625 -154.875 C 138.941406 -155.675781 139.488281 -156.28125 140.53125 -156.6875 C 141.757812 -157.101562 142.742188 -157.816406 143.484375 -158.828125 C 144.234375 -159.847656 145.113281 -160.832031 146.125 -161.78125 C 148.320312 -164.207031 151.039062 -166.660156 154.28125 -169.140625 C 157.519531 -171.617188 159.707031 -174.046875 160.84375 -176.421875 C 161.488281 -177.515625 161.9375 -178.203125 162.1875 -178.484375 C 162.445312 -178.773438 163.28125 -179.046875 164.6875 -179.296875 C 166.382812 -180.628906 167.472656 -181.835938 167.953125 -182.921875 C 168.429688 -184.003906 169.832031 -184.429688 172.15625 -184.203125 C 173.9375 -184.117188 175.265625 -184.1875 176.140625 -184.40625 C 177.015625 -184.632812 177.601562 -183.519531 177.90625 -181.0625 C 176.5 -180.976562 175.90625 -180.539062 176.125 -179.75 C 176.34375 -178.957031 175.945312 -178.09375 174.9375 -177.15625 C 172.039062 -174.519531 169.695312 -171.597656 167.90625 -168.390625 C 166.125 -165.179688 163.410156 -162.769531 159.765625 -161.15625 C 159.410156 -161.132812 158.625 -160.023438 157.40625 -157.828125 C 156.1875 -155.640625 154.835938 -153.441406 153.359375 -151.234375 C 151.878906 -149.023438 150.703125 -147.71875 149.828125 -147.3125 C 148.628906 -146.363281 147.679688 -145.738281 146.984375 -145.4375 C 146.285156 -145.132812 146.160156 -144.101562 146.609375 -142.34375 C 144.816406 -139.582031 142.015625 -136.410156 138.203125 -132.828125 C 134.390625 -129.253906 131.671875 -125.914062 130.046875 -122.8125 C 129.722656 -122.257812 129.441406 -121.664062 129.203125 -121.03125 C 128.972656 -120.394531 128.601562 -119.890625 128.09375 -119.515625 C 126.882812 -118.734375 126.234375 -118.382812 126.140625 -118.46875 C 126.046875 -118.5625 126.078125 -118.832031 126.234375 -119.28125 C 126.390625 -119.726562 126.113281 -119.9375 125.40625 -119.90625 C 124.757812 -118.625 124.765625 -117.597656 125.421875 -116.828125 C 126.085938 -116.054688 125.195312 -115.34375 122.75 -114.6875 C 122.226562 -114.476562 121.976562 -114.109375 122 -113.578125 C 122.03125 -113.054688 121.710938 -112.378906 121.046875 -111.546875 C 120.378906 -110.710938 118.75 -109.515625 116.15625 -107.953125 C 115.457031 -107.734375 115.320312 -106.96875 115.75 -105.65625 C 116.175781 -104.351562 115.691406 -103.394531 114.296875 -102.78125 C 111.367188 -101.207031 109.429688 -99.285156 108.484375 -97.015625 C 107.535156 -94.742188 106.675781 -92.429688 105.90625 -90.078125 C 105.132812 -87.734375 103.488281 -85.335938 100.96875 -82.890625 C 100.257812 -82.859375 99.71875 -82.921875 99.34375 -83.078125 C 98.976562 -83.234375 98.640625 -82.945312 98.328125 -82.21875 C 99.753906 -82.113281 100.050781 -81.503906 99.21875 -80.390625 C 98.382812 -79.273438 97.242188 -78.148438 95.796875 -77.015625 C 94.347656 -75.878906 93.273438 -75.113281 92.578125 -74.71875 C 91.222656 -73.582031 90.816406 -72.847656 91.359375 -72.515625 C 91.910156 -72.191406 91.875 -71.300781 91.25 -69.84375 C 90.914062 -69.476562 90.175781 -69.175781 89.03125 -68.9375 C 87.882812 -68.695312 87.253906 -68.035156 87.140625 -66.953125 L 88.734375 -67.03125 C 88.640625 -65.445312 88 -64.039062 86.8125 -62.8125 C 85.625 -61.59375 84.617188 -60.425781 83.796875 -59.3125 C 83.566406 -60.195312 83.363281 -60.632812 83.1875 -60.625 C 83.007812 -60.613281 82.472656 -60.671875 81.578125 -60.796875 C 80.960938 -59.171875 81.359375 -58.394531 82.765625 -58.46875 C 83.304688 -58.320312 83.460938 -57.929688 83.234375 -57.296875 C 83.003906 -56.660156 82.898438 -56.078125 82.921875 -55.546875 C 82.410156 -55.171875 81.191406 -53.820312 79.265625 -51.5 C 77.347656 -49.175781 75.519531 -46.769531 73.78125 -44.28125 C 72.050781 -41.789062 71.035156 -40.085938 70.734375 -39.171875 C 70.265625 -37.898438 69.625 -37.285156 68.8125 -37.328125 C 68.007812 -37.378906 67.285156 -36.859375 66.640625 -35.765625 C 66.140625 -35.023438 65.78125 -34.203125 65.5625 -33.296875 C 65.34375 -32.390625 64.804688 -31.65625 63.953125 -31.09375 C 62.753906 -30.144531 61.835938 -28.941406 61.203125 -27.484375 C 60.578125 -26.023438 59.851562 -24.648438 59.03125 -23.359375 C 58.40625 -21.734375 57.445312 -20.484375 56.15625 -19.609375 C 54.863281 -18.742188 53.8125 -17.582031 53 -16.125 C 51.6875 -14.09375 49.660156 -11.226562 46.921875 -7.53125 C 44.179688 -3.832031 41.347656 -0.21875 38.421875 3.3125 C 35.503906 6.84375 33.019531 9.375 30.96875 10.90625 C 29.425781 12.050781 27.851562 12.578125 26.25 12.484375 C 24.644531 12.390625 22.875 12.570312 20.9375 13.03125 C 19.414062 10.976562 17.554688 9.382812 15.359375 8.25 C 14.253906 7.414062 13.445312 5.546875 12.9375 2.640625 C 12.425781 -0.253906 12.039062 -2.5 11.78125 -4.09375 Z M 11.78125 -4.09375 "/></g></g><g style="fill:#000000;fill-opacity:1;"><g transform="translate(520.22541, 178.72488)"><path style="stroke:none" d="M 10.3125 -3.578125 C 9.476562 -7.566406 9.664062 -11.378906 10.875 -15.015625 C 12.09375 -18.660156 12.597656 -22.425781 12.390625 -26.3125 C 12.210938 -29.71875 12.597656 -34.171875 13.546875 -39.671875 C 14.492188 -45.171875 15.5625 -50.707031 16.75 -56.28125 C 17.9375 -61.863281 18.910156 -66.3125 19.671875 -69.625 C 20.796875 -74.8125 21.742188 -80.421875 22.515625 -86.453125 C 23.285156 -92.484375 24.554688 -97.953125 26.328125 -102.859375 C 26.722656 -103.972656 27.015625 -104.960938 27.203125 -105.828125 C 27.398438 -106.691406 27.390625 -107.660156 27.171875 -108.734375 C 26.921875 -110.441406 27.101562 -112.164062 27.71875 -113.90625 C 28.332031 -115.65625 28.519531 -117.300781 28.28125 -118.84375 C 28.21875 -120.070312 28.070312 -121.378906 27.84375 -122.765625 C 27.613281 -124.148438 27.785156 -125.40625 28.359375 -126.53125 C 29.054688 -127.8125 30.109375 -128.367188 31.515625 -128.203125 C 32.921875 -128.046875 33.660156 -128.75 33.734375 -130.3125 C 33.984375 -131.414062 33.703125 -132.332031 32.890625 -133.0625 C 32.085938 -133.800781 31.425781 -134.625 30.90625 -135.53125 C 30.5625 -136.289062 31.023438 -137.050781 32.296875 -137.8125 C 33.578125 -138.582031 34.539062 -138.75 35.1875 -138.3125 C 35.832031 -137.894531 36.222656 -137.84375 36.359375 -138.15625 C 36.503906 -138.46875 36.832031 -138.171875 37.34375 -137.265625 C 37.863281 -136.359375 38.003906 -135.9375 37.765625 -136 C 37.523438 -136.0625 37.421875 -135.785156 37.453125 -135.171875 C 38.585938 -134.296875 39.273438 -133.085938 39.515625 -131.546875 C 39.753906 -130.003906 39.675781 -128.523438 39.28125 -127.109375 C 39.175781 -126.003906 39.367188 -124.492188 39.859375 -122.578125 C 40.359375 -120.671875 40.3125 -119.390625 39.71875 -118.734375 C 38.707031 -117.285156 38.410156 -116.257812 38.828125 -115.65625 C 39.242188 -115.0625 39.347656 -113.898438 39.140625 -112.171875 C 38.972656 -109.359375 38.582031 -105.601562 37.96875 -100.90625 C 37.363281 -96.21875 36.582031 -92.519531 35.625 -89.8125 C 35.09375 -88.382812 34.695312 -87.160156 34.4375 -86.140625 C 34.175781 -85.117188 34.082031 -83.910156 34.15625 -82.515625 C 34.414062 -80.503906 34.210938 -77.726562 33.546875 -74.1875 C 32.878906 -70.65625 32.09375 -67.078125 31.1875 -63.453125 C 30.289062 -59.828125 29.507812 -56.984375 28.84375 -54.921875 C 27.769531 -51.453125 27.175781 -47.890625 27.0625 -44.234375 C 26.945312 -40.578125 26.363281 -37.007812 25.3125 -33.53125 C 24.050781 -27.707031 23.253906 -22.066406 22.921875 -16.609375 C 22.960938 -15.984375 22.953125 -14.769531 22.890625 -12.96875 C 22.828125 -11.175781 22.875 -9.507812 23.03125 -7.96875 C 23.1875 -6.425781 23.578125 -5.671875 24.203125 -5.703125 C 24.660156 -5.722656 25.109375 -6.0625 25.546875 -6.71875 C 25.992188 -7.195312 26.953125 -8.132812 28.421875 -9.53125 C 29.898438 -10.9375 31.53125 -12.503906 33.3125 -14.234375 C 35.09375 -15.960938 36.601562 -17.519531 37.84375 -18.90625 C 39.09375 -20.289062 39.707031 -21.140625 39.6875 -21.453125 C 39.476562 -22.367188 39.785156 -23.117188 40.609375 -23.703125 C 41.441406 -24.296875 43.019531 -26.210938 45.34375 -29.453125 C 50.269531 -36.242188 54.65625 -42.300781 58.5 -47.625 C 62.34375 -52.957031 65.84375 -58.117188 69 -63.109375 C 72.15625 -68.097656 75.300781 -73.394531 78.4375 -79 C 82.289062 -82.625 85.269531 -86.628906 87.375 -91.015625 C 89.476562 -95.410156 92.140625 -99.398438 95.359375 -102.984375 C 97.441406 -104.960938 99.222656 -107.3125 100.703125 -110.03125 C 102.191406 -112.75 104.144531 -114.953125 106.5625 -116.640625 C 107.445312 -117.472656 108.53125 -118.269531 109.8125 -119.03125 C 111.09375 -119.800781 111.847656 -120.890625 112.078125 -122.296875 C 111.890625 -122.921875 112.34375 -123.878906 113.4375 -125.171875 C 114.539062 -126.460938 115.394531 -127.285156 116 -127.640625 C 116.300781 -127.804688 116.460938 -127.617188 116.484375 -127.078125 C 116.515625 -126.535156 116.835938 -126.429688 117.453125 -126.765625 C 118.203125 -127.273438 118.5 -128.265625 118.34375 -129.734375 C 118.1875 -131.203125 118.648438 -132.046875 119.734375 -132.265625 C 120.816406 -132.472656 121.375 -132.890625 121.40625 -133.515625 C 121.445312 -134.148438 121.488281 -134.816406 121.53125 -135.515625 C 121.570312 -136.210938 122.050781 -136.742188 122.96875 -137.109375 C 124.03125 -137.460938 124.890625 -138.082031 125.546875 -138.96875 C 126.203125 -139.863281 126.976562 -140.726562 127.875 -141.5625 C 129.789062 -143.6875 132.164062 -145.832031 135 -148 C 137.832031 -150.164062 139.742188 -152.285156 140.734375 -154.359375 C 141.296875 -155.328125 141.6875 -155.929688 141.90625 -156.171875 C 142.132812 -156.421875 142.859375 -156.65625 144.078125 -156.875 C 145.578125 -158.050781 146.535156 -159.113281 146.953125 -160.0625 C 147.367188 -161.007812 148.597656 -161.382812 150.640625 -161.1875 C 152.203125 -161.101562 153.363281 -161.160156 154.125 -161.359375 C 154.882812 -161.554688 155.398438 -160.578125 155.671875 -158.421875 C 154.429688 -158.359375 153.90625 -157.976562 154.09375 -157.28125 C 154.289062 -156.59375 153.945312 -155.835938 153.0625 -155.015625 C 150.53125 -152.703125 148.484375 -150.144531 146.921875 -147.34375 C 145.359375 -144.539062 142.984375 -142.429688 139.796875 -141.015625 C 139.484375 -140.992188 138.789062 -140.023438 137.71875 -138.109375 C 136.65625 -136.191406 135.472656 -134.265625 134.171875 -132.328125 C 132.878906 -130.390625 131.859375 -129.242188 131.109375 -128.890625 C 130.054688 -128.054688 129.222656 -127.507812 128.609375 -127.25 C 128.003906 -126.988281 127.898438 -126.09375 128.296875 -124.5625 C 126.710938 -122.144531 124.25 -119.367188 120.90625 -116.234375 C 117.570312 -113.097656 115.203125 -110.175781 113.796875 -107.46875 C 113.503906 -106.976562 113.253906 -106.457031 113.046875 -105.90625 C 112.847656 -105.351562 112.53125 -104.90625 112.09375 -104.5625 C 111.03125 -103.882812 110.457031 -103.582031 110.375 -103.65625 C 110.289062 -103.726562 110.316406 -103.960938 110.453125 -104.359375 C 110.585938 -104.765625 110.347656 -104.953125 109.734375 -104.921875 C 109.171875 -103.785156 109.175781 -102.882812 109.75 -102.21875 C 110.332031 -101.5625 109.550781 -100.941406 107.40625 -100.359375 C 106.945312 -100.191406 106.726562 -99.875 106.75 -99.40625 C 106.78125 -98.9375 106.503906 -98.332031 105.921875 -97.59375 C 105.335938 -96.863281 103.914062 -95.820312 101.65625 -94.46875 C 101.039062 -94.269531 100.921875 -93.597656 101.296875 -92.453125 C 101.671875 -91.304688 101.25 -90.460938 100.03125 -89.921875 C 97.445312 -88.554688 95.738281 -86.878906 94.90625 -84.890625 C 94.082031 -82.898438 93.335938 -80.878906 92.671875 -78.828125 C 92.003906 -76.773438 90.554688 -74.675781 88.328125 -72.53125 C 87.710938 -72.5 87.242188 -72.550781 86.921875 -72.6875 C 86.609375 -72.832031 86.3125 -72.582031 86.03125 -71.9375 C 87.289062 -71.851562 87.554688 -71.320312 86.828125 -70.34375 C 86.097656 -69.375 85.09375 -68.390625 83.8125 -67.390625 C 82.539062 -66.390625 81.609375 -65.71875 81.015625 -65.375 C 79.828125 -64.382812 79.472656 -63.742188 79.953125 -63.453125 C 80.441406 -63.171875 80.40625 -62.394531 79.84375 -61.125 C 79.550781 -60.789062 78.898438 -60.519531 77.890625 -60.3125 C 76.890625 -60.101562 76.335938 -59.53125 76.234375 -58.59375 L 77.640625 -58.671875 C 77.554688 -57.265625 76.992188 -56.03125 75.953125 -54.96875 C 74.921875 -53.90625 74.046875 -52.882812 73.328125 -51.90625 C 73.128906 -52.675781 72.953125 -53.054688 72.796875 -53.046875 C 72.640625 -53.046875 72.164062 -53.101562 71.375 -53.21875 C 70.832031 -51.789062 71.179688 -51.109375 72.421875 -51.171875 C 72.898438 -51.035156 73.035156 -50.6875 72.828125 -50.125 C 72.617188 -49.570312 72.53125 -49.066406 72.5625 -48.609375 C 72.101562 -48.273438 71.035156 -47.09375 69.359375 -45.0625 C 67.679688 -43.03125 66.082031 -40.921875 64.5625 -38.734375 C 63.039062 -36.554688 62.144531 -35.070312 61.875 -34.28125 C 61.46875 -33.164062 60.914062 -32.628906 60.21875 -32.671875 C 59.53125 -32.710938 58.894531 -32.25 58.3125 -31.28125 C 57.875 -30.644531 57.554688 -29.929688 57.359375 -29.140625 C 57.171875 -28.347656 56.707031 -27.703125 55.96875 -27.203125 C 54.914062 -26.367188 54.109375 -25.316406 53.546875 -24.046875 C 52.992188 -22.773438 52.363281 -21.570312 51.65625 -20.4375 C 51.101562 -19.019531 50.265625 -17.929688 49.140625 -17.171875 C 48.015625 -16.410156 47.097656 -15.390625 46.390625 -14.109375 C 45.242188 -12.328125 43.472656 -9.816406 41.078125 -6.578125 C 38.679688 -3.347656 36.195312 -0.191406 33.625 2.890625 C 31.0625 5.972656 28.890625 8.191406 27.109375 9.546875 C 25.753906 10.546875 24.375 11.003906 22.96875 10.921875 C 21.5625 10.835938 20.007812 11 18.3125 11.40625 C 16.988281 9.601562 15.367188 8.207031 13.453125 7.21875 C 12.484375 6.488281 11.773438 4.851562 11.328125 2.3125 C 10.878906 -0.226562 10.539062 -2.191406 10.3125 -3.578125 Z M 10.3125 -3.578125 "/></g></g><g style="fill:#000000;fill-opacity:1;"><g transform="translate(508.272686, 195.961646)"><path style="stroke:none" d="M 12.3125 -4.265625 C 11.320312 -9.035156 11.546875 -13.59375 12.984375 -17.9375 C 14.429688 -22.28125 15.03125 -26.765625 14.78125 -31.390625 C 14.570312 -35.472656 15.035156 -40.789062 16.171875 -47.34375 C 17.304688 -53.894531 18.582031 -60.503906 20 -67.171875 C 21.414062 -73.835938 22.578125 -79.140625 23.484375 -83.078125 C 24.828125 -89.285156 25.957031 -95.984375 26.875 -103.171875 C 27.800781 -110.367188 29.316406 -116.894531 31.421875 -122.75 C 31.898438 -124.082031 32.25 -125.265625 32.46875 -126.296875 C 32.695312 -127.335938 32.6875 -128.5 32.4375 -129.78125 C 32.144531 -131.800781 32.359375 -133.847656 33.078125 -135.921875 C 33.804688 -138.003906 34.03125 -139.96875 33.75 -141.8125 C 33.675781 -143.289062 33.5 -144.859375 33.21875 -146.515625 C 32.945312 -148.171875 33.144531 -149.671875 33.8125 -151.015625 C 34.664062 -152.546875 35.929688 -153.21875 37.609375 -153.03125 C 39.296875 -152.84375 40.1875 -153.664062 40.28125 -155.5 C 40.582031 -156.820312 40.242188 -157.921875 39.265625 -158.796875 C 38.296875 -159.679688 37.5 -160.664062 36.875 -161.75 C 36.457031 -162.65625 37.015625 -163.5625 38.546875 -164.46875 C 40.078125 -165.382812 41.234375 -165.585938 42.015625 -165.078125 C 42.773438 -164.566406 43.234375 -164.5 43.390625 -164.875 C 43.554688 -165.257812 43.945312 -164.910156 44.5625 -163.828125 C 45.175781 -162.742188 45.34375 -162.238281 45.0625 -162.3125 C 44.78125 -162.394531 44.660156 -162.0625 44.703125 -161.3125 C 46.046875 -160.28125 46.859375 -158.84375 47.140625 -157 C 47.429688 -155.164062 47.335938 -153.398438 46.859375 -151.703125 C 46.753906 -150.390625 46.992188 -148.585938 47.578125 -146.296875 C 48.160156 -144.015625 48.097656 -142.484375 47.390625 -141.703125 C 46.191406 -139.960938 45.84375 -138.734375 46.34375 -138.015625 C 46.84375 -137.304688 46.957031 -135.921875 46.6875 -133.859375 C 46.5 -130.503906 46.039062 -126.023438 45.3125 -120.421875 C 44.59375 -114.816406 43.664062 -110.410156 42.53125 -107.203125 C 41.875 -105.492188 41.394531 -104.023438 41.09375 -102.796875 C 40.789062 -101.578125 40.679688 -100.132812 40.765625 -98.46875 C 41.078125 -96.070312 40.832031 -92.765625 40.03125 -88.546875 C 39.226562 -84.335938 38.289062 -80.066406 37.21875 -75.734375 C 36.15625 -71.410156 35.222656 -68.019531 34.421875 -65.5625 C 33.160156 -61.414062 32.457031 -57.15625 32.3125 -52.78125 C 32.164062 -48.414062 31.457031 -44.160156 30.1875 -40.015625 C 28.695312 -33.066406 27.75 -26.328125 27.34375 -19.796875 C 27.382812 -19.054688 27.367188 -17.617188 27.296875 -15.484375 C 27.234375 -13.347656 27.296875 -11.359375 27.484375 -9.515625 C 27.671875 -7.671875 28.128906 -6.769531 28.859375 -6.8125 C 29.421875 -6.84375 29.960938 -7.238281 30.484375 -8 C 31.015625 -8.582031 32.160156 -9.707031 33.921875 -11.375 C 35.691406 -13.050781 37.632812 -14.921875 39.75 -16.984375 C 41.863281 -19.046875 43.664062 -20.898438 45.15625 -22.546875 C 46.65625 -24.203125 47.394531 -25.21875 47.375 -25.59375 C 47.132812 -26.695312 47.503906 -27.597656 48.484375 -28.296875 C 49.460938 -29.003906 51.34375 -31.285156 54.125 -35.140625 C 60 -43.234375 65.226562 -50.460938 69.8125 -56.828125 C 74.40625 -63.203125 78.585938 -69.363281 82.359375 -75.3125 C 86.128906 -81.269531 89.875 -87.597656 93.59375 -94.296875 C 98.207031 -98.617188 101.765625 -103.394531 104.265625 -108.625 C 106.773438 -113.863281 109.957031 -118.625 113.8125 -122.90625 C 116.289062 -125.257812 118.414062 -128.0625 120.1875 -131.3125 C 121.96875 -134.5625 124.296875 -137.191406 127.171875 -139.203125 C 128.222656 -140.191406 129.507812 -141.140625 131.03125 -142.046875 C 132.5625 -142.960938 133.46875 -144.265625 133.75 -145.953125 C 133.53125 -146.679688 134.070312 -147.820312 135.375 -149.375 C 136.6875 -150.925781 137.710938 -151.910156 138.453125 -152.328125 C 138.804688 -152.523438 139 -152.300781 139.03125 -151.65625 C 139.0625 -151.007812 139.4375 -150.894531 140.15625 -151.3125 C 141.050781 -151.90625 141.410156 -153.082031 141.234375 -154.84375 C 141.054688 -156.601562 141.609375 -157.609375 142.890625 -157.859375 C 144.171875 -158.117188 144.832031 -158.613281 144.875 -159.34375 C 144.925781 -160.082031 144.976562 -160.867188 145.03125 -161.703125 C 145.082031 -162.546875 145.65625 -163.1875 146.75 -163.625 C 148.03125 -164.0625 149.0625 -164.8125 149.84375 -165.875 C 150.625 -166.9375 151.546875 -167.960938 152.609375 -168.953125 C 154.878906 -171.472656 157.707031 -174.03125 161.09375 -176.625 C 164.488281 -179.21875 166.773438 -181.75 167.953125 -184.21875 C 168.628906 -185.363281 169.097656 -186.082031 169.359375 -186.375 C 169.617188 -186.664062 170.484375 -186.945312 171.953125 -187.21875 C 173.742188 -188.613281 174.882812 -189.878906 175.375 -191.015625 C 175.875 -192.160156 177.34375 -192.613281 179.78125 -192.375 C 181.625 -192.28125 183.003906 -192.347656 183.921875 -192.578125 C 184.847656 -192.804688 185.472656 -191.628906 185.796875 -189.046875 C 184.316406 -188.972656 183.6875 -188.523438 183.90625 -187.703125 C 184.132812 -186.878906 183.722656 -185.972656 182.671875 -184.984375 C 179.648438 -182.234375 177.207031 -179.1875 175.34375 -175.84375 C 173.488281 -172.5 170.648438 -169.984375 166.828125 -168.296875 C 166.453125 -168.273438 165.628906 -167.113281 164.359375 -164.8125 C 163.097656 -162.519531 161.691406 -160.21875 160.140625 -157.90625 C 158.585938 -155.601562 157.359375 -154.242188 156.453125 -153.828125 C 155.210938 -152.828125 154.226562 -152.171875 153.5 -151.859375 C 152.769531 -151.546875 152.640625 -150.476562 153.109375 -148.65625 C 151.210938 -145.757812 148.273438 -142.441406 144.296875 -138.703125 C 140.316406 -134.972656 137.488281 -131.484375 135.8125 -128.234375 C 135.46875 -127.660156 135.171875 -127.039062 134.921875 -126.375 C 134.679688 -125.707031 134.296875 -125.1875 133.765625 -124.8125 C 132.515625 -124 131.835938 -123.632812 131.734375 -123.71875 C 131.640625 -123.800781 131.671875 -124.078125 131.828125 -124.546875 C 131.984375 -125.015625 131.691406 -125.226562 130.953125 -125.1875 C 130.285156 -123.875 130.296875 -122.816406 130.984375 -122.015625 C 131.679688 -121.210938 130.75 -120.460938 128.1875 -119.765625 C 127.632812 -119.554688 127.367188 -119.171875 127.390625 -118.609375 C 127.421875 -118.054688 127.085938 -117.34375 126.390625 -116.46875 C 125.703125 -115.601562 124.007812 -114.359375 121.3125 -112.734375 C 120.582031 -112.515625 120.4375 -111.71875 120.875 -110.34375 C 121.320312 -108.976562 120.820312 -107.972656 119.375 -107.328125 C 116.300781 -105.679688 114.269531 -103.671875 113.28125 -101.296875 C 112.289062 -98.929688 111.394531 -96.519531 110.59375 -94.0625 C 109.800781 -91.601562 108.078125 -89.101562 105.421875 -86.5625 C 104.671875 -86.519531 104.101562 -86.582031 103.71875 -86.75 C 103.34375 -86.914062 102.992188 -86.617188 102.671875 -85.859375 C 104.160156 -85.753906 104.472656 -85.117188 103.609375 -83.953125 C 102.742188 -82.796875 101.550781 -81.617188 100.03125 -80.421875 C 98.519531 -79.234375 97.398438 -78.4375 96.671875 -78.03125 C 95.253906 -76.84375 94.832031 -76.078125 95.40625 -75.734375 C 95.988281 -75.390625 95.945312 -74.457031 95.28125 -72.9375 C 94.925781 -72.550781 94.15625 -72.234375 92.96875 -71.984375 C 91.78125 -71.734375 91.117188 -71.046875 90.984375 -69.921875 L 92.640625 -70.015625 C 92.546875 -68.335938 91.882812 -66.863281 90.65625 -65.59375 C 89.425781 -64.320312 88.378906 -63.109375 87.515625 -61.953125 C 87.273438 -62.867188 87.0625 -63.320312 86.875 -63.3125 C 86.6875 -63.3125 86.125 -63.375 85.1875 -63.5 C 84.53125 -61.789062 84.945312 -60.976562 86.4375 -61.0625 C 87 -60.894531 87.160156 -60.484375 86.921875 -59.828125 C 86.679688 -59.171875 86.578125 -58.5625 86.609375 -58 C 86.066406 -57.601562 84.789062 -56.191406 82.78125 -53.765625 C 80.78125 -51.335938 78.867188 -48.828125 77.046875 -46.234375 C 75.234375 -43.640625 74.171875 -41.867188 73.859375 -40.921875 C 73.359375 -39.585938 72.691406 -38.945312 71.859375 -39 C 71.023438 -39.050781 70.269531 -38.5 69.59375 -37.34375 C 69.082031 -36.570312 68.707031 -35.710938 68.46875 -34.765625 C 68.238281 -33.828125 67.675781 -33.0625 66.78125 -32.46875 C 65.539062 -31.476562 64.582031 -30.222656 63.90625 -28.703125 C 63.238281 -27.179688 62.476562 -25.742188 61.625 -24.390625 C 60.976562 -22.679688 59.984375 -21.375 58.640625 -20.46875 C 57.296875 -19.570312 56.195312 -18.363281 55.34375 -16.84375 C 53.976562 -14.71875 51.863281 -11.722656 49 -7.859375 C 46.144531 -3.992188 43.1875 -0.222656 40.125 3.453125 C 37.070312 7.140625 34.476562 9.785156 32.34375 11.390625 C 30.71875 12.585938 29.070312 13.132812 27.40625 13.03125 C 25.738281 12.9375 23.890625 13.128906 21.859375 13.609375 C 20.265625 11.472656 18.328125 9.8125 16.046875 8.625 C 14.890625 7.75 14.046875 5.796875 13.515625 2.765625 C 12.984375 -0.265625 12.582031 -2.609375 12.3125 -4.265625 Z M 12.3125 -4.265625 "/></g></g></g></svg>